<?xml version="1.0" encoding="iso-8859-1"?>
<!-- Generator: Adobe Illustrator 19.0.0, SVG Export Plug-In . SVG Version: 6.00 Build 0)  -->
<svg version="1.1" id="Layer_1" xmlns="http://www.w3.org/2000/svg" xmlns:xlink="http://www.w3.org/1999/xlink" x="0px" y="0px"
	 viewBox="0 0 496 496" style=" fill:#322e46"  xml:space="preserve">
<g>
	<g>
		<g>
			<path d="M72,224h48v-80H72V224z M88,160h16v48H88V160z"/>
			<path d="M136,224h48v-96h-48V224z M152,144h16v64h-16V144z"/>
			<path d="M176,384h-64v-64h-8c-39.696,0-72,32.304-72,72s32.304,72,72,72s72-32.304,72-72V384z M104,448c-30.88,0-56-25.12-56-56
				c0-28.168,20.896-51.536,48-55.432V400h63.432C155.536,427.104,132.168,448,104,448z"/>
			<rect x="176" y="448" width="144" height="16"/>
			<rect x="336" y="448" width="16" height="16"/>
			<path d="M496,184v-56h-56v16h28.688l-77.8,77.8c-2.224-1.944-4.528-3.792-6.888-5.568V68.688L315.312,0H0v496h384v-44.688l8-8
				l42.056,42.056c6.856,6.856,15.968,10.632,25.656,10.632C479.72,496,496,479.72,496,459.712c0-9.688-3.776-18.808-10.632-25.656
				L443.312,392l10.344-10.344l-11.312-11.312L432,380.688l-13.536-13.536C427.064,350.616,432,331.888,432,312
				c0-30.208-11.304-57.768-29.8-78.888l77.8-77.8V184H496z M320,27.312L356.688,64H320V27.312z M368,80v125.952
				c-5.112-2.712-10.48-4.992-16-6.952V80H368z M336,80v114.416c-7.76-1.576-15.784-2.416-24-2.416V96h-48v106.088
				c-5.576,2.448-10.904,5.344-16,8.584V64h-48v160h30.696c-5.384,4.976-10.288,10.424-14.696,16.304V240H48V48h256v32H336z
				 M296,112v81.192c-5.456,0.736-10.8,1.824-16,3.272V112H296z M232,80v128h-16V80H232z M368,480H16V16h288v16H32v224h173.952
				C197.08,272.736,192,291.776,192,312c0,1.032,0.128,2.032,0.152,3.056C178.952,298.584,158.696,288,136,288h-8v80h77.952
				c20.16,38.016,60.104,64,106.048,64c19.888,0,38.616-4.936,55.152-13.536l0.848,0.848V480z M191.432,352H144v-47.432
				C168.488,308.088,187.912,327.512,191.432,352z M474.056,445.368c3.832,3.832,5.944,8.928,5.944,14.344
				c0,11.184-9.104,20.288-20.288,20.288c-5.416,0-10.512-2.112-14.344-5.944L403.312,432L432,403.312L474.056,445.368z
				 M420.688,392L392,420.688l-8-8v-4.92c9.936-7.488,18.68-16.432,25.872-26.584L420.688,392z M416,312
				c0,57.344-46.656,104-104,104s-104-46.656-104-104s46.656-104,104-104c25.8,0,49.384,9.496,67.576,25.104l-11.312,11.312
				C353,231.688,333.384,224,312,224c-48.52,0-88,39.48-88,88c0,48.52,39.48,88,88,88c48.52,0,88-39.48,88-88
				c0-21.384-7.688-41-20.416-56.272l11.312-11.312C406.504,262.616,416,286.2,416,312z M317.656,317.656l50.544-50.544
				c9.864,12.32,15.8,27.912,15.8,44.888c0,39.696-32.304,72-72,72s-72-32.304-72-72s32.304-72,72-72
				c16.976,0,32.568,5.936,44.888,15.8l-50.544,50.544L317.656,317.656z"/>
		</g>
	</g>
</g>
<g>
</g>
<g>
</g>
<g>
</g>
<g>
</g>
<g>
</g>
<g>
</g>
<g>
</g>
<g>
</g>
<g>
</g>
<g>
</g>
<g>
</g>
<g>
</g>
<g>
</g>
<g>
</g>
<g>
</g>
</svg>
