<?xml version="1.0" encoding="iso-8859-1"?>
<!-- Generator: Adobe Illustrator 19.0.0, SVG Export Plug-In . SVG Version: 6.00 Build 0)  -->
<svg version="1.1" id="Capa_1" xmlns="http://www.w3.org/2000/svg" xmlns:xlink="http://www.w3.org/1999/xlink" x="0px" y="0px"
	 viewBox="0 0 496 496" style=" fill:#322e46"  xml:space="preserve">
<g>
	<g>
		<path d="M392,288c-12.328,0-24.28,2.248-35.696,6.432l-48.856-105.24C335.336,169.704,352,138.104,352,104
			C352,46.656,305.344,0,248,0S144,46.656,144,104c0,34.944,17.152,66.632,45.904,86.04l-48.72,104.944
			C129.352,290.424,116.904,288,104,288C46.656,288,0,334.656,0,392s46.656,104,104,104c41.728,0,79.928-25.64,95.96-64h96.088
			c16.032,38.376,54.192,64,95.952,64c57.344,0,104-46.656,104-104S449.344,288,392,288z M365.384,352h-17.64L280,206.064v-38
			L365.384,352z M181.28,322.624l34.72-74.8V248c0,13.232,10.768,24,24,24h16c13.232,0,24-10.768,24-24v-3.928l35.88,77.304
			c-8.32,8.976-15.048,19.392-19.744,30.624h-96.28C195.368,341.288,189.064,331.312,181.28,322.624z M182.288,352H167.64
			l6.224-13.408C177.08,342.8,179.88,347.304,182.288,352z M264,209.6V248c0,4.416-3.584,8-8,8h-16c-4.416,0-8-3.584-8-8V136
			c0-4.416,3.584-8,8-8h16c4.416,0,8,3.584,8,8v73.456l-0.056,0.024L264,209.6z M256,112h-16c-12.28,0-22.32,9.304-23.72,21.216
			l-5.728,12.344C198.84,135.016,192,120.008,192,104c0-30.872,25.128-56,56-56s56,25.128,56,56c0,15.456-6.4,29.92-17.352,40.392
			l-6.776-14.592l-0.688,0.32C276.544,119.736,267.192,112,256,112z M323.232,337.208L330.096,352h-16.472
			C316.304,346.768,319.56,341.824,323.232,337.208z M160,104c0-48.52,39.48-88,88-88s88,39.48,88,88
			c0,27.896-13.232,53.768-35.432,70.368l-6.88-14.816C310.248,145.936,320,125.704,320,104c0-39.704-32.296-72-72-72
			c-39.704,0-72,32.296-72,72c0,22.232,10.28,42.92,27.608,56.528l-6.872,14.8C173.68,158.8,160,132.696,160,104z M216,171.824v38
			L150,352h-17.648L216,171.824z M104,480c-48.52,0-88-39.48-88-88c0-48.52,39.48-88,88-88c10.552,0,20.752,1.888,30.456,5.48
			l-6.752,14.552C120.112,321.384,112.176,320,104,320c-39.704,0-72,32.296-72,72c0,39.704,32.296,72,72,72
			c24.216,0,46.32-11.96,59.736-32h18.6C167.44,461.016,137.024,480,104,480z M112,432h31.152c-10.336,10.16-24.224,16-39.152,16
			c-30.872,0-56-25.128-56-56s25.128-56,56-56c5.824,0,11.488,0.912,16.92,2.632L114.72,352H112c-13.232,0-24,10.768-24,24v32
			C88,421.232,98.768,432,112,432z M112,416c-4.416,0-8-3.584-8-8v-32c0-4.416,3.584-8,8-8h264c4.416,0,8,3.584,8,8v32
			c0,4.416-3.584,8-8,8H112z M392,480c-33.056,0-63.44-18.976-78.328-48h18.608c13.424,20.032,35.48,32,59.728,32
			c18.96,0,36.848-7.304,50.384-20.568l-11.2-11.424C420.664,442.32,406.744,448,392,448c-14.944,0-28.84-5.832-39.168-16H376
			c13.232,0,24-10.768,24-24v-32c0-10.544-6.872-19.416-16.336-22.632l-7.04-15.168c4.968-1.424,10.112-2.2,15.376-2.2
			c30.872,0,56,25.128,56,56c0,10.576-2.968,20.88-8.576,29.8l13.544,8.512C460.184,418.848,464,405.6,464,392
			c0-39.704-32.296-72-72-72c-7.624,0-15.056,1.192-22.2,3.512l-6.752-14.544C372.32,305.728,382.016,304,392,304
			c48.52,0,88,39.48,88,88C480,440.52,440.52,480,392,480z"/>
	</g>
</g>
<g>
</g>
<g>
</g>
<g>
</g>
<g>
</g>
<g>
</g>
<g>
</g>
<g>
</g>
<g>
</g>
<g>
</g>
<g>
</g>
<g>
</g>
<g>
</g>
<g>
</g>
<g>
</g>
<g>
</g>
</svg>
