<?xml version="1.0" encoding="iso-8859-1"?>
<!-- Generator: Adobe Illustrator 19.0.0, SVG Export Plug-In . SVG Version: 6.00 Build 0)  -->
<svg version="1.1" id="Capa_1" xmlns="http://www.w3.org/2000/svg" xmlns:xlink="http://www.w3.org/1999/xlink" x="0px" y="0px"
	 viewBox="0 0 511.999 511.999" style=" fill:#322e46"  xml:space="preserve">
<g>
	<g>
		<path d="M438.222,336.314h-89.999c-4.143,0-7.5,3.358-7.5,7.5s3.357,7.5,7.5,7.5h90c4.142,0,7.5-3.358,7.5-7.5
			S442.365,336.314,438.222,336.314z"/>
	</g>
</g>
<g>
	<g>
		<path d="M438.222,306.664h-89.999c-4.143,0-7.5,3.358-7.5,7.5c0,4.142,3.357,7.5,7.5,7.5h90c4.143,0,7.5-3.358,7.5-7.5
			C445.722,310.022,442.364,306.664,438.222,306.664z"/>
	</g>
</g>
<g>
	<g>
		<path d="M406.884,382.132l-21.464,19.877c-5.497-5.535-9.838-11.203-19.449-11.203c-17.716,0-26.691,21.506-14.193,34.094
			l18.865,19.001c7.661,7.717,19.939,7.847,27.784,0.583l35.637-33.002c3.92-3.63,6.191-8.57,6.397-13.908
			C441.139,379.898,419.967,370.016,406.884,382.132z M388.233,433.478c-1.966,1.819-5.034,1.78-6.945-0.145l-18.866-19.002
			c-1.942-1.956-1.932-5.128,0.024-7.07c1.958-1.943,5.118-1.942,7.071,0.025l10.36,10.434c2.848,2.867,7.453,2.963,10.419,0.218
			l26.779-24.799c3.283-3.038,8.566-0.55,8.395,3.86C425.36,399.885,426.688,397.867,388.233,433.478z"/>
	</g>
</g>
<g>
	<g>
		<path d="M462.361,272.295h-51.639c-4.142,0-7.5,3.358-7.5,7.5c0,4.142,3.358,7.5,7.5,7.5h51.639c2.481,0,4.5,2.018,4.5,4.5
			v200.702c0,2.481-2.019,4.5-4.5,4.5H359.537v-20.454c0-10.754-8.749-19.501-19.501-19.501h-20.454
			c0-176.131-0.173-165.639,0.317-166.878c0.643-1.629,2.244-2.869,4.183-2.869h51.639c4.143,0,7.5-3.358,7.5-7.5
			s-3.357-7.5-7.5-7.5h-51.639c-4.208,0-8.1,1.353-11.289,3.629l-53.685-22.456v-20.021c15.291-11.812,25.866-29.426,28.41-49.519
			c28.61-1.755,42.043-34.877,23.813-55.603V98.597C311.332,44.231,267.1,0,212.734,0s-98.598,44.231-98.598,98.597v30.607
			c-18.287,20.769-4.389,53,23.812,54.724c2.575,20.554,13.509,38.779,30.028,50.689v18.894l-95.947,40.134
			c-1.711,0.703-41.893,17.762-41.893,64.708v94.133c0,10.753,8.749,19.501,19.501,19.501c26.599,0,252.084,0,259.281,0
			l37.815,37.815c0.7,0.7,1.585,1.279,2.441,1.628c0.917,0.379,1.89,0.568,2.874,0.568h110.314c10.753,0,19.501-8.749,19.501-19.501
			V291.796C481.862,281.043,473.114,272.295,462.361,272.295z M265.044,272.219l-23.451,45.804
			c-0.215-0.171-4.504-3.559-17.252-13.626c4.471-5.267,26.335-31.023,30.818-36.304L265.044,272.219z M213.706,315.114
			l11.327,8.945c0.001,2.447,0.323,5.053-2.386,6.984c-1.984,1.43-2.653,1.083-14.885,1.083c-3.136,0-5.71-2.573-5.71-5.71v-2.096
			L213.706,315.114z M213.581,293.894l-30.604-35.88v-15.027c19.389,7.953,41.864,8.12,61.13-0.526v15.471L213.581,293.894z
			 M288.131,168.812v-36.809C309.928,134.932,310.005,165.847,288.131,168.812z M137.342,168.809
			c-9.426-1.299-16.449-8.923-16.449-18.416c0-9.461,8.15-16.367,16.449-18.061V168.809z M147.993,106.753
			c-5.205,1.186-9.194,5.34-10.317,10.352c-2.959,0.301-5.821,0.965-8.537,1.939V98.597c-0.002-46.095,37.499-83.596,83.595-83.596
			c46.096,0,83.597,37.501,83.597,83.596v19.921c-2.699-0.874-5.381-1.391-8.199-1.622c0-8.006,0.557-5.968-25.039-33.481
			c-4.465-4.798-11.863-5.843-17.529-2.137C197.141,112.9,152.909,105.63,147.993,106.753z M152.343,174.536
			c0-6.268,0-46.719,0-53.037c35.019,2.179,71.851-8.625,100.507-27.067c11.978,12.867,18.372,19.503,20.279,21.893
			c0,61.778-0.037,59.688-0.037,59.688c-0.843,34.282-31.264,63.037-69.772,57.177C172.233,227.829,152.343,202.779,152.343,174.536
			z M171.899,268.141c3.473,4.072,28.208,33.071,31.025,36.373l-17.105,13.508l-23.468-45.839L171.899,268.141z M148.446,277.942
			l5.645,11.027l-69.595,31.187c-4.394-3.421-9.22-6.233-14.345-8.366C76.112,307.787,71.67,310.057,148.446,277.942z
			 M93.526,456.988H49.637v0c-2.481,0-4.5-2.018-4.5-4.5c0-97.994-0.059-95.842,0.132-98.017
			c0.987-12.568,5.129-22.851,12.167-31.12c6.975,1.697,13.319,4.97,18.681,9.383c0.834,1.546,2.136,2.697,3.659,3.342
			c8.516,8.628,13.75,20.444,13.75,33.191V456.988z M182.454,456.988h-73.927v-87.721c0-13.672-4.512-26.921-12.753-37.726
			l65.164-29.201c0.157,0.306,12.832,25.078,13.005,25.376c2.63,4.481,8.284,7.729,14.455,5.981
			c0.898,2.381,2.217,4.549,3.875,6.421L182.454,456.988z M304.579,456.988h-59.913l-2.765-32.79
			c-0.348-4.127-3.978-7.194-8.104-6.844c-4.128,0.348-7.191,3.976-6.844,8.104l2.658,31.529h-32.104l9.232-109.884
			c0.781,0.038,12.72,0.043,13.608,0l3.655,43.354c0.348,4.127,3.979,7.188,8.104,6.843c4.128-0.348,7.191-3.977,6.844-8.104
			l-4.138-49.078c1.675-1.892,3.004-4.087,3.902-6.497c5.706,1.524,11.805-0.596,15.809-7.939l11.588-22.632l38.468,17.238V456.988z
			 M304.58,303.847l-31.622-14.17l5.969-11.658l25.876,10.824C304.495,290.881,304.58,292.034,304.58,303.847z M344.536,486.392
			l-14.348-14.348h9.848c2.481,0,4.5,2.019,4.5,4.5V486.392z"/>
	</g>
</g>
<g>
</g>
<g>
</g>
<g>
</g>
<g>
</g>
<g>
</g>
<g>
</g>
<g>
</g>
<g>
</g>
<g>
</g>
<g>
</g>
<g>
</g>
<g>
</g>
<g>
</g>
<g>
</g>
<g>
</g>
</svg>
