<?xml version="1.0" encoding="iso-8859-1"?>
<!-- Generator: Adobe Illustrator 19.0.0, SVG Export Plug-In . SVG Version: 6.00 Build 0)  -->
<svg  version="1.1" id="Capa_1" xmlns="http://www.w3.org/2000/svg" xmlns:xlink="http://www.w3.org/1999/xlink" x="0px" y="0px"
	 viewBox="0 0 368.004 368.004" style=" fill:#322e46" xml:space="preserve">
<g>
	<g >
		<path  d="M239.962,87.571c-0.008-0.216-0.064-0.416-0.088-0.632c-0.088-0.776-0.296-1.52-0.608-2.232
			c-0.056-0.136-0.048-0.28-0.112-0.416c-0.04-0.072-0.104-0.112-0.144-0.184c-0.064-0.112-0.088-0.24-0.152-0.352l-28.8-48
			l-19.2-32c-2.888-4.824-10.832-4.824-13.72,0l-19.2,32l-28.8,48c-0.064,0.112-0.088,0.24-0.152,0.352
			c-0.04,0.072-0.112,0.112-0.144,0.184c-0.064,0.136-0.056,0.28-0.112,0.416c-0.312,0.712-0.512,1.456-0.608,2.232
			c-0.024,0.216-0.08,0.416-0.088,0.632c0.008,0.096-0.032,0.192-0.032,0.296v256c0,13.232,10.768,24,24,24h64
			c13.232,0,24-10.768,24-24v-256C240.002,87.763,239.962,87.667,239.962,87.571z M184.002,23.411l5.072,8.456H178.93
			L184.002,23.411z M169.338,47.867h29.336l22.024,36.704l-36.696,18.352l-36.696-18.344L169.338,47.867z M144.002,100.811l32,16
			v187.056h-32V100.811z M224.002,343.867c0,4.408-3.592,8-8,8h-64c-4.408,0-8-3.592-8-8v-24h80V343.867z M224.002,303.867h-32
			V116.811l32-16V303.867z"/>
	</g>
</g>
<g>
	<g>
		<path d="M96.002,47.867h-40c-13.232,0-24,10.768-24,24v76.688L2.346,178.211c-3.128,3.128-3.128,8.184,0,11.312l29.656,29.656
			v76.688c0,13.232,10.768,24,24,24h32c4.416,0,8-3.584,8-8c0-4.416-3.584-8-8-8h-32c-4.408,0-8-3.592-8-8v-80
			c0-2.12-0.84-4.16-2.344-5.656l-26.344-26.344l26.344-26.344c1.504-1.496,2.344-3.536,2.344-5.656v-80c0-4.408,3.592-8,8-8h40
			c4.416,0,8-3.584,8-8S100.418,47.867,96.002,47.867z"/>
	</g>
</g>
<g>
	<g>
		<path d="M365.658,178.211l-29.656-29.656V71.867c0-13.232-10.768-24-24-24h-40c-4.416,0-8,3.584-8,8s3.584,8,8,8h40
			c4.408,0,8,3.592,8,8v80c0,2.12,0.84,4.16,2.344,5.656l26.344,26.344l-26.344,26.344c-1.504,1.496-2.344,3.536-2.344,5.656v80
			c0,4.408-3.592,8-8,8h-32c-4.416,0-8,3.584-8,8c0,4.416,3.584,8,8,8h32c13.232,0,24-10.768,24-24v-76.688l29.656-29.656
			C368.786,186.395,368.786,181.339,365.658,178.211z"/>
	</g>
</g>
<g>
</g>
<g>
</g>
<g>
</g>
<g>
</g>
<g>
</g>
<g>
</g>
<g>
</g>
<g>
</g>
<g>
</g>
<g>
</g>
<g>
</g>
<g>
</g>
<g>
</g>
<g>
</g>
<g>
</g>
</svg>
