<?xml version="1.0" encoding="iso-8859-1"?>
<!-- Generator: Adobe Illustrator 18.1.1, SVG Export Plug-In . SVG Version: 6.00 Build 0)  -->
<svg version="1.1" id="Capa_1" xmlns="http://www.w3.org/2000/svg" xmlns:xlink="http://www.w3.org/1999/xlink" x="0px" y="0px"
	 viewBox="0 0 16 16" style="fill: #dcdcdc;" xml:space="preserve">
<g>
	<path style="fill: #dcdcdc;" d="M12.004,0H3.996C1.789,0,0,1.789,0,3.996v8.008C0,14.211,1.789,16,3.996,16h8.008
		C14.211,16,16,14.211,16,12.004V3.996C16,1.789,14.211,0,12.004,0z M15,11.997C15,13.657,13.655,15,11.997,15H4.003
		C2.343,15,1,13.655,1,11.997V4.003C1,2.343,2.345,1,4.003,1h7.994C13.657,1,15,2.345,15,4.003V11.997z"/>
</g>
<g>
</g>
<g>
</g>
<g>
</g>
<g>
</g>
<g>
</g>
<g>
</g>
<g>
</g>
<g>
</g>
<g>
</g>
<g>
</g>
<g>
</g>
<g>
</g>
<g>
</g>
<g>
</g>
<g>
</g>
</svg>
